<svg width="221" height="64" viewBox="0 0 221 64" fill="none" xmlns="http://www.w3.org/2000/svg">
<g clip-path="url(#clip0_1279_3781)">
<path fill-rule="evenodd" clip-rule="evenodd" d="M104.638 22.3648C103.157 22.3769 101.691 22.0782 100.334 21.4882C99.0307 20.9241 97.8508 20.1121 96.8615 19.0981C95.8636 18.0722 95.0766 16.8635 94.5439 15.5392C93.982 14.1511 93.6998 12.667 93.7134 11.1711C93.6992 9.68006 93.9815 8.20082 94.5439 6.81807C95.068 5.50612 95.8363 4.30387 96.8088 3.27417C97.7939 2.2553 98.9747 1.44262 100.282 0.884099C101.641 0.288779 103.114 -0.0125874 104.6 2.36148e-06C106.089 -0.013423 107.563 0.287956 108.926 0.884099C110.234 1.44801 111.419 2.25988 112.414 3.27417C113.41 4.29573 114.197 5.49923 114.732 6.81807C115.294 8.20082 115.576 9.68006 115.562 11.1711C115.576 12.667 115.293 14.1511 114.732 15.5392C114.199 16.8635 113.412 18.0722 112.414 19.0981C111.419 20.1124 110.234 20.9243 108.926 21.4882C107.574 22.0742 106.113 22.3728 104.638 22.3648ZM104.638 19.4952C105.741 19.5102 106.834 19.2825 107.839 18.8284C108.771 18.3934 109.603 17.7738 110.285 17.0077C110.967 16.2258 111.494 15.3235 111.84 14.3479C112.208 13.3183 112.394 12.2336 112.391 11.1412C112.397 10.0364 112.21 8.93888 111.84 7.89698C111.494 6.9214 110.967 6.01909 110.285 5.23718C109.606 4.47133 108.773 3.85605 107.839 3.43151C106.832 2.98492 105.74 2.76243 104.638 2.77967C103.543 2.7628 102.458 2.98534 101.459 3.43151C100.531 3.85823 99.7026 4.47334 99.0283 5.23718C98.3464 6.01909 97.8187 6.9214 97.4731 7.89698C97.1027 8.93888 96.9163 10.0364 96.922 11.1412C96.9188 12.2336 97.1052 13.3183 97.4731 14.3479C97.8187 15.3235 98.3464 16.2258 99.0283 17.0077C99.7056 17.7722 100.533 18.3917 101.459 18.8284C102.455 19.2833 103.541 19.5111 104.638 19.4952ZM70.2416 0.546932H63.3942L63.3035 21.8103H66.3234V13.1042H70.6342L75.232 21.8103H78.7049L73.6842 12.7146C74.9287 12.3055 75.9944 11.4858 76.7041 10.3919C77.3603 9.30157 77.6951 8.05039 77.6705 6.7806C77.6659 6.01431 77.5306 5.25433 77.2703 4.53288C76.9964 3.78069 76.5552 3.09948 75.9794 2.53991C75.3298 1.91384 74.5594 1.42452 73.7145 1.10136C72.6015 0.704415 71.4238 0.516412 70.2416 0.546932ZM73.5182 9.54529C72.682 10.2567 71.5969 10.6121 70.4983 10.5343H66.3612V3.19175H70.4152C71.509 3.13147 72.586 3.47885 73.4351 4.16576C73.8061 4.51421 74.0963 4.93868 74.2853 5.40965C74.4743 5.88061 74.5579 6.38679 74.5299 6.89299C74.553 7.38024 74.4752 7.86702 74.3012 8.32323C74.1272 8.77943 73.8606 9.19535 73.5182 9.54529ZM1.92508 0.546936H15.4315V3.25918H5.01294V9.44789H12.8569V12.1901H5.01294V19.0831H16.2015V21.8253H1.92508V0.546936ZM32.9163 0.546936H36.0042V19.1131H47.1625V21.8253H32.9163V0.546936ZM135.599 0.546936H132.481V21.8253H135.501V5.16974L147.233 21.8253H150.32V0.546936H147.301V17.1651L135.599 0.546936ZM168.07 0.546942H175.257C176.839 0.532733 178.415 0.742125 179.938 1.16881C181.292 1.54411 182.547 2.20901 183.614 3.11683C184.668 4.02835 185.495 5.16949 186.03 6.45094C186.641 7.96999 186.936 9.59593 186.898 11.2311C186.932 12.8319 186.637 14.4227 186.03 15.9063C185.493 17.1824 184.666 18.3182 183.614 19.2255C182.539 20.1342 181.28 20.8036 179.922 21.1885C178.397 21.6266 176.815 21.8411 175.227 21.8253H168.092L168.07 0.546942ZM175.144 19.0831C177.816 19.0831 179.9 18.4288 181.395 17.1201C182.889 15.8114 183.644 13.8709 183.659 11.2985C183.659 8.70615 182.94 6.72317 181.5 5.34957C180.061 3.97596 177.919 3.28916 175.076 3.28916H171.188V19.0531L175.144 19.0831ZM7.13444 28.8682H9.15527e-05L8.93117 63.0784H15.6504L22.1581 40.4589L28.5677 63.0784H35.3624L44.4219 28.8682H37.6273L32.0482 54.4622L25.3289 29.8422H19.4328L12.7664 54.4622L7.13444 28.8682ZM48.5818 28.8682H55.0972V63.0784H48.5818V28.8682ZM81.7699 34.5624L61.4539 57.4367L61.4464 63.0784H89.9764V57.4367H69.6678L89.5611 34.5624V28.8682H62.3825V34.5624H81.7699ZM106.057 28.8682H112.776L125.852 63.0784H118.635L115.615 54.4098H102.781L99.7607 63.0784H92.966L106.057 28.8682ZM113.758 49.0976L109.228 35.8136L104.623 49.0976H113.758ZM141.155 28.8682H129.733L129.748 63.0784H135.999V49.5921H140.891L147.874 63.0784H155.213L147.248 48.768C149.073 47.9054 150.595 46.5196 151.619 44.7895C152.588 43.0401 153.078 41.0688 153.038 39.0728C153.025 37.8984 152.808 36.7351 152.397 35.6338C151.94 34.4098 151.245 33.2871 150.351 32.3297C149.32 31.2506 148.069 30.4025 146.681 29.8422C144.925 29.1477 143.045 28.8163 141.155 28.8682ZM143.28 43.9457C142.617 44.1935 141.908 44.2998 141.2 44.2576H135.999V34.3526H141.2C141.891 34.3241 142.58 34.4319 143.228 34.6698C143.876 34.9078 144.47 35.2711 144.975 35.7387C145.457 36.2029 145.834 36.7622 146.084 37.3804C146.334 37.9986 146.45 38.662 146.425 39.3276C146.438 39.9706 146.324 40.6099 146.088 41.209C145.852 41.8082 145.5 42.3552 145.051 42.819C144.547 43.3139 143.944 43.6978 143.28 43.9457ZM160.014 28.8682H172.886C175.388 28.8401 177.88 29.1861 180.277 29.8946C182.409 30.5176 184.382 31.5825 186.068 33.019C187.735 34.4958 189.028 36.3413 189.843 38.406C190.787 40.879 191.243 43.5091 191.187 46.1531C191.243 48.6903 190.775 51.212 189.813 53.5631C188.957 55.5891 187.648 57.3954 185.985 58.8452C184.293 60.2992 182.313 61.3841 180.172 62.0295C177.794 62.7484 175.319 63.1021 172.833 63.0784H159.999L160.014 28.8682ZM172.267 57.3393C176.193 57.3393 179.19 56.4002 181.259 54.5221C183.327 52.644 184.362 49.8968 184.362 46.2805C184.362 42.6842 183.403 39.852 181.493 37.7617C179.583 35.6713 176.503 34.6373 172.267 34.6373H166.529V57.3543L172.267 57.3393ZM201.235 54.9342C200.719 54.4598 200.228 53.9596 199.763 53.4357L195.294 57.564C195.924 58.3277 196.607 59.0463 197.339 59.7144C198.216 60.5186 199.187 61.2154 200.231 61.7897C201.425 62.4538 202.691 62.9792 204.006 63.3557C205.528 63.7837 207.105 63.9906 208.687 63.97C210.373 63.9878 212.051 63.7192 213.647 63.1758C215.089 62.6837 216.421 61.9205 217.572 60.9281C218.652 60.0025 219.531 58.8681 220.155 57.594C220.787 56.3014 221.108 54.8802 221.091 53.4432C221.13 51.9017 220.84 50.3693 220.238 48.9478C219.702 47.7483 218.932 46.666 217.973 45.7635C217.002 44.8814 215.893 44.1627 214.689 43.6357C213.443 43.0908 212.142 42.6789 210.808 42.4069C209.617 42.1945 208.443 41.894 207.297 41.5079C206.51 41.2599 205.769 40.888 205.101 40.4065C204.62 40.0574 204.229 39.6004 203.961 39.0728C203.729 38.557 203.616 37.9966 203.628 37.432C203.636 36.978 203.741 36.5308 203.938 36.1208C204.159 35.6397 204.484 35.2125 204.889 34.8696C205.369 34.4605 205.922 34.1452 206.52 33.9405C207.268 33.6894 208.055 33.5678 208.845 33.5809C209.758 33.5708 210.666 33.71 211.533 33.993C212.243 34.2335 212.928 34.5422 213.579 34.9146C214.088 35.2158 214.564 35.5699 214.998 35.971C215.376 36.3381 215.647 36.5854 215.821 36.7202L220.117 32.7193L219.082 31.5655C218.478 30.9355 217.79 30.391 217.036 29.9471C216.01 29.333 214.909 28.8521 213.76 28.5161C212.232 28.0763 210.647 27.8691 209.057 27.9017C207.26 27.8644 205.472 28.1408 203.772 28.7183C202.381 29.1907 201.098 29.9317 199.997 30.8986C199.011 31.7571 198.236 32.8285 197.732 34.0305C197.234 35.2175 196.977 36.4907 196.977 37.7766C196.976 38.905 197.17 40.0252 197.551 41.0883C197.929 42.1653 198.505 43.1636 199.25 44.0328C200.059 44.9659 201.031 45.7474 202.118 46.3404C203.403 47.0376 204.792 47.5234 206.233 47.779C207.552 48.0276 208.855 48.3528 210.136 48.753C211.033 49.0261 211.891 49.414 212.688 49.9068C213.284 50.2684 213.768 50.7871 214.085 51.4053C214.37 52.0043 214.512 52.6608 214.5 53.3234C214.507 53.951 214.379 54.5729 214.126 55.1478C213.872 55.7227 213.497 56.2373 213.027 56.6575C212.038 57.5865 210.529 58.0436 208.498 58.0436C207.487 58.059 206.482 57.9045 205.523 57.5865C204.688 57.2963 203.889 56.909 203.145 56.4327C202.467 55.9878 201.828 55.4865 201.235 54.9342Z" fill="white"/>
</g>
<defs>
<clipPath id="clip0_1279_3781">
<rect width="221" height="64" fill="white"/>
</clipPath>
</defs>
</svg>
